<?xml version="1.0" encoding="iso-8859-1"?>
<!-- Generator: Adobe Illustrator 19.0.0, SVG Export Plug-In . SVG Version: 6.00 Build 0)  -->
<svg xmlns="http://www.w3.org/2000/svg" xmlns:xlink="http://www.w3.org/1999/xlink" version="1.1" id="Capa_1" x="0px" y="0px" viewBox="0 0 512 512" style="enable-background:new 0 0 512 512;" xml:space="preserve">
<path style="fill:#A57D5F;" d="M103.694,392.274l30.581,85.625c5.697,15.952,20.807,26.6,37.746,26.6h167.96  c16.939,0,32.049-10.648,37.746-26.6l30.581-85.625H103.694z"/>
<path style="fill:#E1FF82;" d="M301.482,15.516h-2.773h-85.415h-2.776c-41.713,0-68.844,43.898-50.189,81.207l71.622,143.244h48.097  L351.67,96.723C370.325,59.414,343.195,15.516,301.482,15.516z"/>
<path style="fill:#C8FF82;" d="M160.332,96.729c3.216-26.54,24.324-49.149,52.635-49.149h86.066  c28.31,0,49.419,22.609,52.635,49.149l0.003-0.006c18.655-37.309-8.476-81.207-50.189-81.207h-90.963  c-41.713,0-68.844,43.898-50.189,81.207L160.332,96.729z"/>
<path style="fill:#FFF082;" d="M256,92.838c-4.868,0-9.632-0.649-14.206-1.889c-4.988-1.352-9.843,2.61-9.843,7.779V360.21h48.097  V98.728c0-5.168-4.854-9.131-9.843-7.779C265.632,92.189,260.868,92.838,256,92.838z"/>
<path style="fill:#FFDC64;" d="M256,207.903c-13.282,0-24.048-10.767-24.048-24.048V360.21h48.097V183.855  C280.048,197.136,269.282,207.903,256,207.903z"/>
<path style="fill:#A0D755;" d="M297.456,46.205l-14.087,14.087C276.11,67.551,266.265,71.629,256,71.629l0,0  c-10.265,0-20.11-4.078-27.369-11.337l-14.087-14.087c-4.252-4.252-6.641-10.019-6.641-16.032l0,0  c0-12.522,10.151-22.673,22.673-22.673h50.848c12.522,0,22.673,10.151,22.673,22.673l0,0  C304.097,36.186,301.708,41.953,297.456,46.205z"/>
<path style="fill:#8CC655;" d="M260.695,60.292l-14.087-14.087c-4.252-4.252-6.641-10.019-6.641-16.032  c0-12.522,10.151-22.673,22.673-22.673h-32.065c-12.522,0-22.673,10.151-22.673,22.673c0,6.013,2.389,11.78,6.641,16.032  l14.087,14.087c7.259,7.259,17.104,11.337,27.369,11.337c5.603,0,11.032-1.314,16.032-3.598  C267.871,66.131,263.993,63.589,260.695,60.292z"/>
<path style="fill:#B9916E;" d="M408.306,360.21H103.694c-8.854,0-16.032,7.178-16.032,16.032s7.178,16.032,16.032,16.032h304.613  c8.854,0,16.032-7.178,16.032-16.032C424.339,367.387,417.161,360.21,408.306,360.21z"/>
<path style="fill:#A57D5F;" d="M191.871,376.242c0-8.855,7.178-16.032,16.032-16.032h-104.21c-8.854,0-16.032,7.178-16.032,16.032  s7.178,16.032,16.032,16.032h104.21C199.049,392.274,191.871,385.096,191.871,376.242z"/>
<path style="fill:#9B6E55;" d="M103.694,392.274l30.581,85.626c5.697,15.952,20.807,26.6,37.746,26.6h37.042  c-1.126-3.167-2.052-6.703-2.706-10.568l-9.739-57.566c-2.483-14.676,8.827-28.06,23.711-28.06H402.58l5.726-16.032H103.694z"/>
<g>
	<rect x="231.95" y="231.95" style="fill:#FFF082;" width="48.1" height="32.06"/>
	<rect x="231.95" y="296.08" style="fill:#FFF082;" width="48.1" height="32.06"/>
</g>
<path d="M431.839,376.242c0-12.976-10.557-23.532-23.532-23.532H287.548V241.738l70.83-141.66c9.932-19.863,8.891-43-2.785-61.892  c-11.605-18.777-31.66-30.027-53.71-30.163C296.502,3.047,289.313,0,281.424,0h-50.848c-7.89,0-15.078,3.047-20.46,8.023  c-22.049,0.136-42.105,11.386-53.71,30.163c-11.676,18.892-12.717,42.029-2.785,61.892l70.83,141.66V352.71H103.693  c-12.976,0-23.532,10.557-23.532,23.533c0,11.074,7.691,20.38,18.011,22.872l29.039,81.308C133.957,499.31,151.964,512,172.02,512  h167.96c20.056,0,38.063-12.69,44.809-31.578l29.039-81.308C424.148,396.622,431.839,387.316,431.839,376.242z M272.548,288.581  h-33.097v-17.064h33.097V288.581z M272.548,256.516h-33.097v-17.064h33.097V256.516z M239.452,303.581h33.097v17.064h-33.097  L239.452,303.581L239.452,303.581z M281.424,15c8.366,0,15.173,6.807,15.173,15.173c0,4.053-1.578,7.863-4.444,10.729  l-14.087,14.087c-5.894,5.894-13.73,9.14-22.065,9.14s-16.172-3.246-22.065-9.14l-14.087-14.087  c-2.866-2.866-4.444-6.676-4.444-10.729c0-8.366,6.807-15.173,15.173-15.173H281.424z M169.166,46.072  c7.229-11.697,18.751-19.572,31.89-22.141c-0.426,2.015-0.653,4.102-0.653,6.242c0,8.06,3.139,15.637,8.837,21.335l14.087,14.087  c6.932,6.932,15.682,11.379,25.172,12.92v30.087l-13.835,13.835c-2.929,2.929-2.929,7.678,0,10.606  c2.929,2.929,7.678,2.929,10.606,0L256,122.316l10.729,10.729c1.464,1.464,3.384,2.197,5.303,2.197s3.839-0.732,5.303-2.197  c2.929-2.929,2.929-7.678,0-10.606L263.5,108.603V78.516c9.49-1.541,18.24-5.988,25.172-12.92l14.087-14.087  c5.699-5.699,8.837-13.276,8.837-21.335c0-2.14-0.227-4.227-0.653-6.242c13.139,2.569,24.661,10.443,31.89,22.141  c8.922,14.437,9.718,32.118,2.128,47.298l-57.414,114.828v-48.391c0-4.142-3.358-7.5-7.5-7.5s-7.5,3.358-7.5,7.5v64.645H239.45  v-64.645c0-4.142-3.358-7.5-7.5-7.5s-7.5,3.358-7.5,7.5v48.391L167.038,93.37C159.448,78.19,160.244,60.508,169.166,46.072z   M239.452,335.645h33.097v17.064h-33.097L239.452,335.645L239.452,335.645z M408.307,384.774h-32.063c-4.142,0-7.5,3.358-7.5,7.5  s3.358,7.5,7.5,7.5h21.421l-27.001,75.603C366.044,488.311,353.713,497,339.98,497H172.02c-13.733,0-26.064-8.689-30.683-21.623  l-27.001-75.603h229.839c4.142,0,7.5-3.358,7.5-7.5s-3.358-7.5-7.5-7.5H103.693c-4.705,0-8.532-3.828-8.532-8.533  s3.828-8.532,8.532-8.532h304.613c4.705,0,8.532,3.828,8.532,8.533C416.839,380.947,413.011,384.774,408.307,384.774z"/>
<path d="M240.048,39.048c4.142,0,7.5-3.358,7.5-7.5s-3.358-7.5-7.5-7.5h-0.08c-4.142,0-7.46,3.358-7.46,7.5  S235.906,39.048,240.048,39.048z"/>
<path d="M272.032,39.048c4.142,0,7.5-3.358,7.5-7.5s-3.358-7.5-7.5-7.5h-0.08c-4.142,0-7.46,3.358-7.46,7.5  S267.89,39.048,272.032,39.048z"/>
<g>
</g>
<g>
</g>
<g>
</g>
<g>
</g>
<g>
</g>
<g>
</g>
<g>
</g>
<g>
</g>
<g>
</g>
<g>
</g>
<g>
</g>
<g>
</g>
<g>
</g>
<g>
</g>
<g>
</g>
</svg>
